<svg width="512" height="76" viewBox="0 0 512 76" fill="none" xmlns="http://www.w3.org/2000/svg">
<path d="M47.0872 66.2853V7.98636H61.0629L76.1568 53.1081C75.997 51.1382 75.8107 48.8755 75.5977 46.3199C75.3848 43.7111 75.1984 41.1289 75.0387 38.5733C74.9322 35.9645 74.879 33.755 74.879 31.9448V7.98636H85.4207V66.2853H71.4449L56.5108 21.1635C56.6705 22.8672 56.8303 24.8904 56.99 27.233C57.1497 29.5756 57.2828 31.9448 57.3893 34.3407C57.549 36.7365 57.6289 38.8662 57.6289 40.7296V66.2853H47.0872Z" fill="white"/>
<path d="M114.14 67.0839C110.253 67.0839 106.872 66.3652 103.997 64.9277C101.122 63.4369 98.8861 61.3871 97.2889 58.7783C95.7449 56.1163 94.9729 53.0283 94.9729 49.5144V39.1324C94.9729 35.6185 95.7449 32.5571 97.2889 29.9483C98.8861 27.2862 101.122 25.2365 103.997 23.799C106.872 22.3082 110.253 21.5628 114.14 21.5628C118.08 21.5628 121.46 22.3082 124.282 23.799C127.157 25.2365 129.367 27.2862 130.911 29.9483C132.508 32.5571 133.306 35.6185 133.306 39.1324V49.5144C133.306 53.0283 132.508 56.1163 130.911 58.7783C129.367 61.3871 127.157 63.4369 124.282 64.9277C121.46 66.3652 118.08 67.0839 114.14 67.0839ZM114.14 56.7019C116.482 56.7019 118.266 56.0896 119.49 54.8651C120.715 53.5873 121.327 51.8037 121.327 49.5144V39.1324C121.327 36.7898 120.715 35.0062 119.49 33.7816C118.266 32.5571 116.482 31.9448 114.14 31.9448C111.85 31.9448 110.067 32.5571 108.789 33.7816C107.564 35.0062 106.952 36.7898 106.952 39.1324V49.5144C106.952 51.8037 107.564 53.5873 108.789 54.8651C110.067 56.0896 111.85 56.7019 114.14 56.7019Z" fill="white"/>
<path d="M157.074 67.0839C152.868 67.0839 149.434 65.5399 146.772 62.452C144.163 59.3107 142.859 55.1313 142.859 49.9137V38.7331C142.859 33.5154 144.163 29.3626 146.772 26.2747C149.434 23.1334 152.868 21.5628 157.074 21.5628C160.002 21.5628 162.478 22.3082 164.501 23.799C166.578 25.2365 168.095 27.3129 169.053 30.0282L168.734 19.9656V7.98636H180.713V66.2853H169.133V58.379C168.175 61.1475 166.657 63.3038 164.581 64.8478C162.505 66.3385 160.002 67.0839 157.074 67.0839ZM161.706 56.7019C163.995 56.7019 165.726 56.063 166.897 54.7852C168.122 53.4542 168.734 51.5642 168.734 49.1151V39.5317C168.734 37.0826 168.122 35.2192 166.897 33.9414C165.726 32.6103 163.995 31.9448 161.706 31.9448C159.523 31.9448 157.819 32.5571 156.595 33.7816C155.424 35.0062 154.838 36.7898 154.838 39.1324V49.5144C154.838 51.8037 155.424 53.5873 156.595 54.8651C157.819 56.0896 159.523 56.7019 161.706 56.7019Z" fill="white"/>
<path d="M209.991 67.0839C206.104 67.0839 202.697 66.3652 199.769 64.9277C196.894 63.4369 194.658 61.3871 193.06 58.7783C191.516 56.1163 190.744 53.0283 190.744 49.5144V39.1324C190.744 35.6185 191.516 32.5571 193.06 29.9483C194.658 27.2862 196.894 25.2365 199.769 23.799C202.697 22.3082 206.104 21.5628 209.991 21.5628C213.878 21.5628 217.232 22.3082 220.054 23.799C222.929 25.2365 225.138 27.2862 226.682 29.9483C228.279 32.5571 229.078 35.6185 229.078 39.1324V47.2783H202.165V49.5144C202.165 52.2829 202.804 54.3061 204.081 55.5839C205.412 56.8616 207.382 57.5005 209.991 57.5005C211.695 57.5005 213.186 57.2343 214.463 56.7019C215.741 56.1695 216.486 55.3709 216.699 54.3061H228.439C227.587 58.1394 225.484 61.2274 222.13 63.57C218.776 65.9126 214.73 67.0839 209.991 67.0839ZM202.165 39.1324V40.1706L217.658 40.0108V38.9726C217.658 36.2574 217.019 34.1543 215.741 32.6636C214.517 31.1728 212.6 30.4275 209.991 30.4275C207.382 30.4275 205.412 31.1995 204.081 32.7434C202.804 34.2874 202.165 36.4171 202.165 39.1324Z" fill="white"/>
<path d="M265.384 66.2853C262.296 66.2853 259.581 65.6464 257.238 64.3686C254.895 63.0376 253.058 61.2008 251.727 58.8582C250.45 56.5156 249.811 53.8003 249.811 50.7123V18.7677H235.835V7.98636H261.79V50.313C261.79 51.857 262.216 53.1081 263.068 54.0665C263.973 55.0248 265.144 55.504 266.582 55.504H278.96V66.2853H265.384Z" fill="white"/>
<path d="M287.315 66.2853V55.504H301.849V33.1428H288.912V22.3614H313.829V55.504H326.447V66.2853H287.315ZM307.28 15.4135C305.097 15.4135 303.34 14.8545 302.009 13.7364C300.731 12.6183 300.092 11.101 300.092 9.18428C300.092 7.2676 300.731 5.75023 302.009 4.63217C303.34 3.51411 305.097 2.95508 307.28 2.95508C309.463 2.95508 311.193 3.51411 312.471 4.63217C313.802 5.75023 314.467 7.2676 314.467 9.18428C314.467 11.101 313.802 12.6183 312.471 13.7364C311.193 14.8545 309.463 15.4135 307.28 15.4135Z" fill="white"/>
<path d="M353.568 67.0839C347.659 67.0839 343.027 65.4867 339.673 62.2922C336.372 59.0978 334.721 54.732 334.721 49.1949V22.3614H346.7V49.1151C346.7 54.173 348.99 56.7019 353.568 56.7019C355.751 56.7019 357.428 56.063 358.6 54.7852C359.824 53.4542 360.436 51.5642 360.436 49.1151V22.3614H372.416V49.1949C372.416 54.7852 370.739 59.1776 367.384 62.3721C364.03 65.5133 359.425 67.0839 353.568 67.0839Z" fill="white"/>
<path d="M399.617 67.0839C395.997 67.0839 392.829 66.5249 390.114 65.4068C387.399 64.2355 385.269 62.6383 383.725 60.6151C382.234 58.592 381.489 56.2227 381.489 53.5075H393.228C393.228 54.9982 393.787 56.1163 394.906 56.8616C396.024 57.607 397.594 57.9797 399.617 57.9797H403.131C405.314 57.9797 406.991 57.607 408.163 56.8616C409.387 56.1163 409.999 55.0514 409.999 53.6672C409.999 52.3362 409.52 51.3778 408.562 50.7922C407.604 50.1533 406.139 49.7273 404.169 49.5144L394.107 48.3165C390.22 47.8373 387.239 46.3998 385.162 44.0039C383.086 41.5548 382.048 38.5201 382.048 34.8997C382.048 26.0085 387.745 21.5628 399.138 21.5628H402.892C408.269 21.5628 412.555 22.7341 415.749 25.0767C418.944 27.4193 420.541 30.5606 420.541 34.5004H408.801C408.801 33.2226 408.269 32.2377 407.204 31.5455C406.193 30.8534 404.755 30.5073 402.892 30.5073H399.138C397.275 30.5073 395.864 30.8534 394.906 31.5455C393.947 32.2377 393.468 33.196 393.468 34.4205C393.468 35.6451 393.921 36.4703 394.826 36.8962C395.784 37.3222 397.115 37.6416 398.819 37.8546L408.402 39.0525C412.715 39.5849 415.962 41.1023 418.145 43.6046C420.328 46.1069 421.42 49.4079 421.42 53.5075C421.42 57.82 419.876 61.1742 416.788 63.57C413.7 65.9126 409.147 67.0839 403.131 67.0839H399.617Z" fill="white"/>
<path d="M36.7363 62.3719L0 45.7607V34.3405L36.7363 17.6494V28.5106L14.6945 38.1738C13.6297 38.653 12.5116 39.0523 11.3403 39.3718C10.169 39.6912 9.23732 39.9042 8.54519 40.0106C9.23732 40.1171 10.169 40.3301 11.3403 40.6495C12.5116 40.9157 13.6297 41.2884 14.6945 41.7676L36.7363 51.4309V62.3719Z" fill="#8675D1"/>
<path d="M432.538 75.0699L460.09 0H472.469L467.278 14.0556L512 34.2606V45.6808L475.264 62.3719V51.5107L497.305 41.7676C498.424 41.2884 499.675 40.9157 501.059 40.6495C502.496 40.3301 503.641 40.1438 504.493 40.0905C503.641 39.984 502.496 39.7977 501.059 39.5315C499.675 39.212 498.424 38.8127 497.305 38.3336L463.843 23.3196L444.916 75.0699H432.538Z" fill="#8675D1"/>
</svg>
