<svg width="59" height="61" viewBox="0 0 59 61" fill="none" xmlns="http://www.w3.org/2000/svg">
<path d="M30.3935 28.8641L24.3259 34.9373L20.591 31.2045L30.3842 21.4097L50.226 41.1493L30.4064 61L23.6229 54.1992L13.2877 43.8211L2.67122 33.169L0 30.4787L6.50417 23.9686L6.50787 15.3199L11.7486 15.3125L11.8041 18.6509L30.4508 0L59 28.6086L55.2706 32.3599L53.2654 30.338L42.8302 19.8729L30.4416 7.45998L7.45501 30.4806L19.4126 42.4899L29.8848 52.9938C30.0642 53.2086 30.2159 53.3641 30.4323 53.5067L42.7618 41.1512L39.9537 38.3757L30.3879 28.866L30.3935 28.8641Z" fill="white"/>
<path d="M34.7141 44.8863L30.9082 44.8757L30.9124 40.9499L34.7099 40.9478L34.7141 44.8863Z" fill="white"/>
<path d="M30.1225 44.88L26.3145 44.8884L26.3208 40.9478L30.1182 40.952L30.1225 44.88Z" fill="white"/>
<path d="M30.116 40.2825H26.3164L26.3185 36.3418L30.1244 36.3482L30.116 40.2825Z" fill="white"/>
<path d="M34.7139 40.274L30.9102 40.2825V36.346L34.7055 36.3418L34.7139 40.274Z" fill="white"/>
</svg>
